<?xml version="1.0" encoding="utf-8"?>
<!-- Generator: Adobe Illustrator 20.1.0, SVG Export Plug-In . SVG Version: 6.00 Build 0)  -->
<svg version="1.1" id="content" xmlns="http://www.w3.org/2000/svg" xmlns:xlink="http://www.w3.org/1999/xlink" x="0px" y="0px"
	 viewBox="0 0 127.7 142.2" style="enable-background:new 0 0 127.7 142.2;" xml:space="preserve">
<style type="text/css">
	.st0{opacity:5.000000e-02;}
	.st1{fill:#282F42;}
	.st2{fill:#2A2A2B;}
	.st3{fill:#FFB380;}
	.st4{fill:#083B84;}
	.st5{fill:#DCE8EF;}
	.st6{fill:none;stroke:#E6E7E8;stroke-width:0.9417;stroke-linecap:round;stroke-miterlimit:10;}
	.st7{fill:#2E364D;}
	.st8{fill:#323233;}
	.st9{fill:#DBDDD9;}
	.st10{fill:#3F2E18;}
	.st11{fill:#C5C8C9;}
	.st12{fill:#939699;}
	.st13{fill:#45585E;}
	.st14{fill:#F4AB7A;}
	.st15{fill:#FFFFFF;}
</style>
<ellipse class="st0" cx="63.8" cy="124" rx="63.8" ry="18.2"/>
<g>
	<path class="st1" d="M42.1,95.7c1.1,0.5,9.1,6.1,21.1,6.1c12,0,22.2-6,23.4-6.2c1.2,1.7,2.2,4.2,2.2,4.2c0,0.1,0,0.2,0,0.3
		l-19.4,22.9c-4.4,0.9-10,0.1-10,0.1L40.1,99.8c-0.1-0.1-0.1-0.2,0-0.3C40,99.5,42,95.7,42.1,95.7z"/>
	<path class="st2" d="M41,100.9c0.5-1,1.1-2,1.1-1.9c1.1,0.5,9.1,6.1,21.1,6.1c12,0,22.2-6,23.4-6.2c0.5,0.7,0.9,1.5,1.3,2.2l0.9-1
		c0.1-0.1,0.1-0.2,0-0.3c0,0-1-2.5-2.2-4.2c-1.2,0.2-11.4,6.2-23.4,6.2c-12,0-20.1-5.6-21.1-6.1C42,95.7,40,99.5,40,99.5
		c-0.1,0.1,0,0.2,0,0.3L41,100.9z"/>
	<path class="st1" d="M90.4,121.1c7.5-3.6,23.8-13.3,30.7-27.9c1-2-1.4-10.6-9.3-7.8c-4.9,1.7-30.1,10.2-34.2,15.6
		c-6.6,8.7-6.9,16.7-8.3,21.8C73.1,124.5,86.7,122.9,90.4,121.1z"/>
	<path class="st1" d="M37.6,121.2C30.1,117.6,8.4,102,7.4,93.3c-0.3-2.2-2.4-9,6.9-8.7c4.9,1.7,32,11.6,36.6,16.6
		c5.7,6.3,7.6,17.1,8.3,21.8C55.4,124.5,41.3,123,37.6,121.2z"/>
	<path class="st3" d="M87.3,117.1c-7.1-0.3-14.9-1.2-17.8-1.8c-8.5-3.5-55-29.2-55-29.2c-7.5-2-9.6,4.6-7.3,8.6
		c5.9,10.4,11.5,16.4,32.6,19.2c6.3,0.8,18.1,4.4,24.6,6.8c0.4,1.5,1.9,3.1,5.5,3.5c1.9,0.2,12.5,4,17.4,3.6c8.2-0.7,8.2-4.4,8.2-6
		C95.4,120,93.4,117.3,87.3,117.1z"/>
	<g>
		<path class="st4" d="M87.3,117.1c-7.1-0.3-14.9-1.2-17.8-1.8c-0.2-0.1-0.4-0.2-0.7-0.3l-5.7,5.2c0.4,0.1,0.8,0.3,1.2,0.4
			c0.4,1.5,1.9,3.1,5.5,3.5c1.9,0.2,12.5,4,17.4,3.6c8.2-0.7,8.2-4.4,8.2-6C95.4,120,93.4,117.3,87.3,117.1z"/>
		<path class="st5" d="M87.1,127.6c8.2-0.7,8.2-4.4,8.2-6c0-1.4-1.6-3.7-6.2-4.4c-1.2,1-2.9,4-3.1,8c-9.3,0.4-17.6-2.9-21.9-4.6
			c0.4,1.5,2,3.1,5.4,3.4C71.6,124.3,82.2,128.1,87.1,127.6z"/>
		<path class="st6" d="M74.1,115.5L74.1,115.5c-1,1.6-1.5,3.4-1.5,5.3l0,0.4"/>
		<path class="st6" d="M76.6,115.9L76.6,115.9c-1,1.6-1.5,3.4-1.5,5.3l0,0.4"/>
		<path class="st6" d="M79.1,116.2L79.1,116.2c-1,1.6-1.5,3.4-1.5,5.3l0,0.4"/>
		<path class="st6" d="M81.3,116.4L81.3,116.4c-1,1.6-1.5,3.4-1.5,5.3l0,0.4"/>
	</g>
	<path class="st0" d="M69.4,115.3c-1.3-0.5-3.5-1.6-6.2-3l0,0c-2,1.1-4.3,2.4-4.8,2.6c-0.6,0.1-5.1,0.7-8.1,1.4
		c5.1,1.4,10.3,3,13.9,4.4c0.1,0.3,0.3,0.7,0.5,1c3.7-2,13.1-3.4,16.8-4.9C76.3,116.3,71.6,115.7,69.4,115.3z"/>
	<path class="st7" d="M14.3,84.5c0,0,25.5,14.8,42.2,23.7c0,3.2-0.4,6.6-0.6,7.4c-0.6,1.3-4.2,6-5.7,7.8c-6-3.9-8.9-5.7-12.5-6.8
		C13.2,109.1,11,105.6,5.1,95.2C2.8,91.2,6.8,82.5,14.3,84.5z"/>
	<path class="st0" d="M4.8,94.6c0-0.1-0.1-0.2-0.1-0.3c0-0.1,0-0.1,0-0.2c0-0.1-0.1-0.2-0.1-0.3c0-0.1,0-0.1,0-0.2
		c0-0.1,0-0.2-0.1-0.3c0-0.1,0-0.1,0-0.2c0-0.1,0-0.2,0-0.3c0-0.1,0-0.1,0-0.2c0-0.1,0-0.2,0-0.3c0-0.1,0-0.1,0-0.2
		c0-0.1,0-0.2,0-0.3c0-0.1,0-0.1,0-0.2c0-0.1,0-0.2,0-0.3c0-0.1,0-0.1,0-0.2c0-0.1,0-0.2,0.1-0.3c0-0.1,0-0.1,0-0.2
		c0-0.1,0.1-0.2,0.1-0.3c0-0.1,0-0.1,0.1-0.2c0-0.1,0.1-0.2,0.1-0.4c0-0.1,0-0.1,0.1-0.2c0-0.1,0.1-0.2,0.1-0.4c0,0,0-0.1,0.1-0.1
		c0.1-0.1,0.1-0.3,0.2-0.4c0,0,0-0.1,0.1-0.1c0.1-0.1,0.1-0.3,0.2-0.4c0,0,0-0.1,0.1-0.1c0.1-0.1,0.2-0.3,0.3-0.4c0,0,0,0,0-0.1
		c0.1-0.2,0.2-0.3,0.3-0.5l0,0c0.2,0.3,0.3,0.5,0.5,0.8c6.8,12.8,41.8,25,49.1,27.5c0,0,0,0,0,0c-0.6,1.3-4.2,6-5.7,7.8
		c-6-3.9-8.9-5.7-12.5-6.8C13.2,109.1,11,105.6,5.1,95.2C5,95,4.9,94.9,4.9,94.8C4.9,94.7,4.9,94.7,4.8,94.6z"/>
	<path class="st8" d="M55.9,115.5c0-0.1,0.1-0.2,0.1-0.4c-3.8,0.9-9.6,2.2-14.6,2.2c-0.4,0-0.9,0-1.3,0c2.7,1.2,5.4,2.9,10,5.9
		C51.7,121.5,55.3,116.9,55.9,115.5z"/>
	<path class="st3" d="M113.7,86.8c0,0-47.3,26.9-55.3,28.8c-3.2,0.7-12,1.8-18.3,1.9c-6.1,0.1-6.9,3-6.9,4.6c0,1.6,3.4,5.3,6,5.6
		c7.8,1,17.2-2.6,19-2.7c3.9-0.4,6-3.2,6.2-4.8c6-2.4,19-5.3,24.5-6c21.2-2.6,26.6-9.7,32.6-20.2C123.7,90,121.3,84.8,113.7,86.8z"
		/>
	<path class="st7" d="M113.8,84.9c0,0-25.5,14.8-42.2,23.7c0,3.2,0.4,6.6,0.6,7.4c0.6,1.3,4.2,6,5.7,7.8c6-3.9,8.9-5.7,12.5-6.8
		c24.4-7.4,26.6-10.9,32.6-21.3C125.3,91.6,121.3,82.9,113.8,84.9z"/>
	<path class="st0" d="M123.3,95c0-0.1,0.1-0.2,0.1-0.3c0-0.1,0-0.1,0-0.2c0-0.1,0.1-0.2,0.1-0.3c0-0.1,0-0.1,0-0.2
		c0-0.1,0-0.2,0.1-0.3c0-0.1,0-0.1,0-0.2c0-0.1,0-0.2,0-0.3c0-0.1,0-0.1,0-0.2c0-0.1,0-0.2,0-0.3c0-0.1,0-0.1,0-0.2
		c0-0.1,0-0.2,0-0.3c0-0.1,0-0.1,0-0.2c0-0.1,0-0.2,0-0.3c0-0.1,0-0.1,0-0.2c0-0.1,0-0.2-0.1-0.3c0-0.1,0-0.1,0-0.2
		c0-0.1-0.1-0.2-0.1-0.3c0-0.1,0-0.1-0.1-0.2c0-0.1-0.1-0.2-0.1-0.4c0-0.1,0-0.1-0.1-0.2c0-0.1-0.1-0.2-0.1-0.4c0,0,0-0.1-0.1-0.1
		c-0.1-0.1-0.1-0.3-0.2-0.4c0,0,0-0.1-0.1-0.1c-0.1-0.1-0.1-0.3-0.2-0.4c0,0,0-0.1-0.1-0.1c-0.1-0.1-0.2-0.3-0.3-0.4c0,0,0,0,0-0.1
		c-0.1-0.2-0.2-0.3-0.3-0.5l0,0c-0.2,0.3-0.3,0.5-0.5,0.8c-6.8,12.8-41.8,25-49.1,27.5c0,0,0,0,0,0c0.6,1.3,4.2,6,5.7,7.8
		c6-3.9,8.9-5.7,12.5-6.8c24.4-7.4,26.6-10.9,32.6-21.3c0.1-0.1,0.1-0.3,0.2-0.4C123.3,95.1,123.3,95.1,123.3,95z"/>
	<path class="st8" d="M63.3,101.8c-1.4,0-2.7-0.1-4-0.2v3.2c0,0.5,0.4,0.8,0.8,0.8h6.4c0.5,0,0.8-0.4,0.8-0.8v-3.2
		C66,101.7,64.6,101.8,63.3,101.8z"/>
	<path class="st9" d="M66.4,101.6v2.4c0,0.3-0.2,0.5-0.5,0.5h-5.4c-0.3,0-0.5-0.2-0.5-0.5v-2.3l-0.9,0v3.2c0,0.5,0.4,0.8,0.8,0.8
		h6.4c0.5,0,0.8-0.4,0.8-0.8v-3.2L66.4,101.6z"/>
	<g>
		<g>
			<path class="st10" d="M56.3,35.1c-2.5-1.2-6.6-6-7.9-16.1c-1-7.5-1.9-16,7.2-17.6C61.4-0.5,75.3-2,77.8,7.6
				C79,19,75.3,35.6,69.6,35c-0.2,3.6-6.3,2.7-7.8,3.1C57.9,39.2,56.3,35.1,56.3,35.1z"/>
		</g>
	</g>
	<path class="st11" d="M34.3,94.4l7.5,6.9l42.5,0.1l7.6-7.1c1-0.9,1.5-2.2,1.5-3.5l0,0H32.8l0,0C32.8,92.2,33.4,93.5,34.3,94.4z"/>
	<polygon class="st12" points="32.8,90.9 44.1,100.1 83.5,100.1 93.5,90.9 	"/>
	<path class="st13" d="M105.3,75.3c-0.8-5-6.1-28.1-13.7-33.9C80.8,33.2,58.9,30.6,36,40.7C28,44.7,24.3,70.6,23.3,76.2
		C21.3,86.8,37.6,90.4,40,90.9c4.8,0.9,6.2-1.5,6.9-3.3c1.2-3.1-8.8-8.5-9.4-11.9c2.6-12.9,0.7-12.3,0-17.8
		c0.8,3.7-0.4,5.2,3.2,12.6c0.7,1.4,2.1,20.5,1.3,25.2c-0.3,1.9,45,1.8,44.5-0.1c-1.1-4.6-0.2-24.7,0.3-26
		c2.1-5.3,2.3-10.6,2.6-12.1c-0.5,3.1-2.2,3.5,0,16.5c-2.6,2.5-9.1,11.5-8,14.6c0.6,1.8,2.8,4.6,5.5,2.3
		C89.1,89.1,107,86,105.3,75.3z"/>
	<path class="st14" d="M72.1,42.2c0.8-0.7,1.1-1.8,1-2.8c-0.3-2.3-0.8-6.6-0.4-9.3c0.5-3.6-18.4-1.5-18.4-1.5s-0.1,7-0.6,10.5
		c-0.1,0.9,0.1,1.8,0.6,2.5c1.5,1.9,4.7,3.7,8.8,4C67.3,46,70.5,43.7,72.1,42.2z"/>
	<path class="st3" d="M76.6,19.7L76.6,19.7c0.6,0,1.2,0.5,1.3,1c0.4,1.9-0.4,5.8-1.4,6.7c-0.8,0.7-2.1,0.9-2.1,0.9L76.6,19.7z"/>
	<path class="st0" d="M76.3,24.1c-0.2,1.3-0.5,1.7-1,1.6c-0.6-0.1-0.9-1.2-0.7-2.5c0.2-1.3,0.7-2.3,1.3-2.2
		C76.4,21.2,76.5,22.8,76.3,24.1z"/>
	<path class="st3" d="M49.9,19.7L49.9,19.7c-0.6,0-1.3,0.5-1.5,1c-0.5,1.7,0,5.1,1.2,6.3c0.8,0.7,1.8,1,1.8,1L49.9,19.7z"/>
	<path class="st0" d="M49.9,24c0.2,1.3,0.5,1.8,1,1.7c0.6-0.1,0.9-1.2,0.7-2.5c-0.2-1.3-0.7-2.3-1.3-2.2
		C49.8,21.2,49.8,22.8,49.9,24z"/>
	<path class="st3" d="M73.4,16.4c1.4,0.7,0.8,7.4,0.8,9c0,0.6,0.7,0.3,1.1,0.3c0,2.8-0.3,6.5-0.8,8.3c-0.4,1.5-7.2,6.6-11.2,6.6
		c-4,0-11.2-6-11.6-7.5c-0.5-2.2-0.5-3.9-0.7-7.4c0.5,0.1,1,0.1,1-0.4c0-0.7-1-9.2,3-11.1C57.6,16.2,70.6,17.1,73.4,16.4z"/>
	<path class="st0" d="M37.7,57.5c0,0.1,0,0.3-0.1,0.5c0,0,0,0,0,0c0,0,0,0,0,0h0c0.4,0.1-0.4,5.2,3.2,12.6c0.3,0.5,0.6,3.6,1,7.5
		c2.1-4.1,5.6-5.8,10.9-6.4C49.5,71.1,40.8,70.5,37.7,57.5z"/>
	<path class="st0" d="M86.9,69.6c2.1-5.3,2.3-10.6,2.6-12.1c-2.6,12.1-11.1,13.7-17.3,14.4c2.3,0.4,11.3,2.5,13.9,14.2
		C86.1,78.8,86.6,70.4,86.9,69.6z"/>
	<path class="st11" d="M44.1,102.1h38.2c2,0,3.6-1.6,3.6-3.6l0,0H40.4l0,0C40.4,100.5,42,102.1,44.1,102.1z"/>
	<path class="st15" d="M85.8,97.7H40.5l-6.9-25.2c-0.4-1.4,0.7-2.7,2.1-2.7h55c1.4,0,2.5,1.4,2.1,2.7L85.8,97.7z"/>
	<path class="st11" d="M85.8,98.5H40.5l-6.9-25.2c-0.4-1.4,0.7-2.7,2.1-2.7h55c1.4,0,2.5,1.4,2.1,2.7L85.8,98.5z"/>
	<ellipse class="st15" cx="62.9" cy="87.2" rx="4.2" ry="2.2"/>
	<g>
		<path class="st4" d="M59.5,115.2c-0.4,0.1-0.8,0.3-1.1,0.3c-3.2,0.7-12,1.8-18.3,1.9c-6.1,0.1-6.9,3-6.9,4.6c0,1.6,3.4,5.3,6,5.6
			c7.8,1,17.2-2.6,19-2.7c3.9-0.4,6-3.2,6.2-4.8c0,0-3.7,1-2.9-0.8c0.7-1.6-0.3-3.5-2-4C59.4,115.3,59.4,115.3,59.5,115.2z"/>
		<path class="st5" d="M41.7,125.9c1.2-3.6-0.1-6.9-0.9-8.5c-0.2,0-0.4,0-0.6,0c-6.1,0.1-6.9,3-6.9,4.6c0,1.6,3.4,5.3,6,5.6
			c7.8,1,17.2-2.6,19-2.7c1.9-0.2,3.3-0.9,4.3-1.8C57.3,124.5,41.6,128.4,41.7,125.9z"/>
		<path class="st6" d="M54.4,115.9L54.4,115.9c1,1.6,1.5,3.4,1.5,5.3l0,0.4"/>
		<path class="st6" d="M51.9,116.3L51.9,116.3c1,1.6,1.5,3.4,1.5,5.3l0,0.4"/>
		<path class="st6" d="M49.3,116.7L49.3,116.7c1,1.6,1.5,3.4,1.5,5.3l0,0.4"/>
		<path class="st6" d="M47.2,116.9L47.2,116.9c1,1.6,1.5,3.4,1.5,5.3l0,0.4"/>
	</g>
</g>
</svg>
